<?xml version="1.0" standalone="no"?>
<!DOCTYPE svg PUBLIC "-//W3C//DTD SVG 20010904//EN"
 "http://www.w3.org/TR/2001/REC-SVG-20010904/DTD/svg10.dtd">
<svg version="1.0" xmlns="http://www.w3.org/2000/svg"
 width="1254.000000pt" height="1254.000000pt" viewBox="0 0 1254.000000 1254.000000"
 preserveAspectRatio="xMidYMid meet">

<g transform="translate(0.000000,1254.000000) scale(0.100000,-0.100000)"
fill="#7F7F7F" stroke="none">
<path d="M5960 11476 c-596 -76 -1141 -339 -1556 -751 -381 -378 -628 -833
-735 -1354 -68 -333 -69 -771 -3 -1076 92 -419 276 -810 528 -1125 213 -265
498 -508 771 -657 l70 -38 5 -2180 5 -2180 255 -234 c140 -129 289 -266 330
-305 234 -221 545 -503 568 -515 34 -18 120 -18 155 0 14 8 129 109 254 225
349 322 614 566 771 708 l142 128 0 474 0 474 243 0 c259 0 273 3 310 52 19
26 20 41 19 423 -2 429 -2 428 -58 453 -17 8 -106 12 -269 12 l-245 0 0 389
c0 385 0 390 21 396 11 4 123 5 248 3 203 -3 230 -1 254 14 14 10 31 26 36 36
15 28 16 803 2 831 -28 52 -45 55 -310 55 l-246 1 -2 370 -3 370 63 34 c474
261 896 722 1117 1221 103 231 185 515 216 745 24 178 24 534 0 700 -48 333
-135 613 -277 884 -211 406 -504 733 -879 983 -145 97 -413 234 -575 294 -123
45 -363 106 -510 129 -146 23 -566 29 -715 11z m525 -1206 c216 -82 373 -251
426 -460 27 -107 23 -271 -9 -370 -68 -208 -250 -379 -462 -436 -86 -23 -243
-22 -330 1 -302 79 -503 354 -488 668 13 275 187 510 436 591 112 36 106 35
242 32 100 -3 137 -8 185 -26z"/>
</g>
</svg>
