<svg width="57" height="60" viewBox="0 0 57 60" fill="none" xmlns="http://www.w3.org/2000/svg">
<path d="M29.1078 39.6483C28.8208 41.4902 28.2725 43.183 27.5806 44.8813C24.5906 45.1683 21.6264 44.9806 18.71 44.2778C11.9057 42.6365 6.19432 38.1524 2.98168 31.9295C0.82152 27.7435 -0.18312 22.9779 0.21984 18.2086C0.54552 20.8435 1.16008 23.3662 2.34136 25.7784C4.93392 31.1954 9.41616 35.4991 14.8883 37.9702C19.3466 39.9206 24.1711 40.5554 29.106 39.6483H29.1078Z" fill="white"/>
<path d="M19.0264 22.3744C15.1753 25.2522 12.3306 29.0683 10.6728 33.683C9.21734 32.5588 8.03054 31.1954 6.89526 29.7546C8.16486 27.0351 9.76382 24.5916 11.7823 22.4572C16.6473 17.2978 23.4792 14.5526 30.5926 14.9371C35.2202 15.1874 39.7337 16.6741 43.5849 19.3421C40.3685 17.9897 37.1614 17.3034 33.6949 17.377C28.4269 17.4892 23.3044 19.217 19.0301 22.3762L19.0264 22.3744Z" fill="white"/>
<path d="M21.1057 56.3298C24.1601 53.9709 26.6423 51.117 28.2836 47.5842C30.107 43.8417 30.9479 39.7274 30.8172 35.5617C30.6112 30.0822 28.6295 24.9007 25.0286 20.6926C26.7435 20.067 28.4639 19.653 30.3333 19.4065C31.8072 21.4802 32.9884 23.7084 33.8312 26.1114C36.3133 33.0427 35.4798 40.6327 31.6103 46.9016C29.084 50.8834 25.5199 54.2616 21.1057 56.3316V56.3298Z" fill="white"/>
<path d="M24.5979 50.0572C23.3339 51.7721 21.8784 53.211 20.2095 54.6241C10.7593 52.7491 3.45818 46.0736 1.0165 36.6731C0.298901 33.9075 -0.0230993 31.1218 0.206901 28.1594C0.631941 30.6526 1.19866 33.0832 2.23274 35.4439C6.1593 44.4047 14.7006 49.7665 24.5961 50.0572H24.5979Z" fill="white"/>
<path d="M38.891 43.8178C36.3831 47.0322 33.2514 49.7131 29.5254 51.4722C36.1586 46.2999 39.9048 39.019 39.4964 30.5642C39.3234 26.634 38.1752 22.9485 36.3113 19.4065C38.4807 19.6457 40.455 20.1682 42.4569 20.9208C45.1249 28.796 43.9786 37.0926 38.891 43.8178Z" fill="white"/>
<path d="M8.65064 18.8122C6.79408 20.4958 5.32576 22.3781 3.91816 24.5658C3.04048 22.6357 2.51792 20.6227 2.14624 18.5049L2.79208 17.7818L4.0488 16.5398C10.8329 10.2543 20.0715 8.30945 28.8373 11.3252C31.0342 12.0814 33.1006 13.0364 35.0399 14.398C32.0794 13.2756 29.2182 12.5304 26.1214 12.3887C19.6649 12.0925 13.4365 14.4054 8.65248 18.8103L8.65064 18.8122Z" fill="white"/>
<path d="M26.4693 9.40793C20.4451 7.04721 14.5774 6.57065 8.48514 8.75473C6.21274 9.55329 4.18874 10.6518 2.07642 12.0446C2.24202 10.1605 2.67994 8.34808 3.3681 6.56328C7.90554 4.77664 12.7944 4.33873 17.5674 5.40225C20.7653 6.16769 23.7682 7.45753 26.4711 9.40793H26.4693Z" fill="white"/>
<path d="M45.9695 40.9529C43.6898 43.3228 41.0898 45.2014 38.1035 46.5833C39.3658 45.5106 40.5562 44.517 41.6731 43.3191C46.6393 37.996 48.6007 31.4014 48.0874 24.1003L48.6854 24.5106C49.9991 25.5484 51.1914 26.6487 52.1998 27.9864C51.3699 32.9231 49.3993 37.26 45.9677 40.9529H45.9695Z" fill="white"/>
<path d="M14.6731 57.925C12.9564 58.6905 11.2047 59.2388 9.28195 59.5369L7.39595 57.8735C1.96243 52.6387 -0.512371 45.4701 0.170269 37.996C0.562189 40.3751 1.02955 42.5831 1.93115 44.7672C3.23203 48.0148 5.15667 50.8613 7.73635 53.2238C9.76035 55.1577 12.0475 56.6186 14.6731 57.925Z" fill="white"/>
<path d="M46.9595 41.5196L49.5704 39.1681C51.7858 37.0042 53.4952 34.546 54.8108 31.5946C55.3572 32.4226 55.7528 33.2672 56.154 34.1817C53.7178 37.2729 50.6855 39.8581 46.9595 41.5196Z" fill="white"/>
<path d="M17.8046 4.35713C13.7308 2.73977 9.57429 1.94121 5.19141 2.47665C5.69925 1.55665 6.19421 0.807768 6.77749 7.62939e-06C10.7224 0.590648 14.5165 1.91545 17.8046 4.35713Z" fill="white"/>
<path d="M4.81979 60.0061L1.88499 59.8754C0.414834 56.1458 -0.337727 52.1714 0.146193 48.081C0.738673 52.4345 2.16651 56.4806 4.81979 60.0042V60.0061Z" fill="white"/>
</svg>
